<?xml version="1.0" encoding="UTF-8"?> <svg xmlns="http://www.w3.org/2000/svg" width="568" height="115" viewBox="0 0 568 115" fill="none"><g clip-path="url(#clip0_504_2858)"><path d="M45.5598 9.35987C44.1719 21.9799 43.4443 34.6639 43.3798 47.3599C43.3798 48.8599 43.5298 50.3599 43.4798 51.8499C43.4098 54.3199 44.8598 54.8499 46.9598 55.0299C49.7898 55.2599 49.2698 53.3099 49.1998 51.7599C48.6843 39.794 50.0338 27.8208 53.1998 16.2699C54.3998 11.5899 55.9998 7.04987 58.9098 3.14987C61.8198 -0.750128 65.5798 -1.05013 68.9098 2.61987C71.0836 5.13306 72.827 7.98819 74.0698 11.0699C75.1898 13.6299 76.1398 15.8999 79.1398 17.2099C82.1398 18.5199 82.0498 21.5399 80.6798 24.1099C79.6798 26.0199 77.9698 27.7099 75.3998 26.7099C72.3998 25.5499 71.8098 23.0699 72.1798 20.1699C72.3898 18.4899 74.3598 17.1699 72.9598 15.1199C70.9598 12.2499 69.5398 8.28987 65.6498 8.39987C61.7598 8.50987 60.5398 12.4699 59.4898 15.4999C55.3798 27.3999 54.7398 39.8499 54.1898 52.3099C54.0598 55.1699 55.6498 55.1399 57.6198 55.0299C63.7731 54.6699 69.9198 54.3365 76.0598 54.0299C77.6719 53.9168 79.2918 54.0586 80.8598 54.4499C73.5398 56.9999 66.1898 59.0799 58.3998 59.1799C56.7898 59.1799 54.1198 58.4399 54.3998 61.3899C54.6298 63.8699 57.0198 62.9499 58.4698 62.8699C72.2198 62.0899 85.9998 61.0699 98.9998 56.2199C102.88 54.7899 107.69 53.2799 107.21 48.3099C106.73 43.3399 101.81 41.5899 97.8998 39.4499C96.3898 38.6199 95.4598 40.0499 94.2998 40.5199C90.5998 42.0199 86.2998 40.8799 85.2998 37.8099C84.2998 34.7399 84.8798 32.1599 87.8798 30.5399C91.2098 28.7399 96.0398 29.8199 97.2598 33.2599C98.2598 36.0799 100.16 36.8699 102.41 37.8899C106.92 39.8899 111.52 41.8899 115.06 45.5699C119.16 49.8299 119.06 53.0899 114.49 56.8599C108.96 61.4099 102.18 63.2899 95.4898 64.9999C83.5687 68.0822 71.2654 69.4294 58.9598 68.9999C55.8698 68.8799 54.4298 69.3499 54.9598 72.9999C55.3698 75.7899 55.9598 78.7899 54.6798 83.0699C53.5798 78.6599 52.5798 75.6099 52.1098 72.4899C51.5798 68.9499 49.2698 68.1799 46.4898 68.6699C43.7098 69.1599 45.1598 71.7399 45.3498 73.1299C46.5398 81.6499 47.9298 90.1299 52.0598 97.8999C55.8498 104.98 60.4898 105.42 65.2698 99.0299C67.3798 96.1999 70.3898 93.6399 67.2698 89.1599C65.1798 86.1599 67.1398 82.8599 70.2698 81.2899C70.9337 80.9211 71.664 80.6872 72.4187 80.6017C73.1733 80.5162 73.9375 80.5808 74.667 80.7918C75.3966 81.0028 76.0773 81.356 76.6699 81.831C77.2624 82.3061 77.7552 82.8936 78.1198 83.5599C80.1198 86.7199 80.1198 90.7599 76.6398 92.2899C71.6398 94.5099 70.3798 98.9199 68.1498 102.95C66.8151 105.447 65.2159 107.794 63.3798 109.95C58.3665 115.657 53.5931 115.42 49.0598 109.24C44.0598 102.41 41.9698 94.3499 40.1898 86.2399C38.9998 81.1199 38.2398 75.8499 37.5498 70.5999C37.2398 68.2499 36.4498 67.3399 33.9498 66.9299C27.2421 65.9807 20.7316 63.9546 14.6698 60.9299C20.6698 61.4499 26.6698 62.0299 32.6198 62.4499C34.0698 62.5499 36.4498 63.7699 36.6798 61.2399C36.9298 58.3999 34.2898 59.2399 32.6798 59.0799C23.5998 57.9699 14.6798 56.3499 6.37981 52.1799C3.43981 50.7099 0.169807 49.3599 -0.000192639 45.2899C-0.160193 41.4299 2.82981 39.8799 5.39981 38.1699C7.49834 36.8212 9.70604 35.6504 11.9998 34.6699C14.1098 33.7299 15.8598 33.0099 16.8898 30.3899C18.0998 27.2999 21.3798 27.1399 24.1698 28.5399C24.7191 28.7648 25.2136 29.1051 25.6198 29.5379C26.026 29.9707 26.3344 30.4857 26.5241 31.0481C26.7138 31.6105 26.7803 32.2072 26.7192 32.7975C26.658 33.3879 26.4707 33.9583 26.1698 34.4699C24.7398 37.2699 22.1698 37.6199 19.3198 36.6899C15.5298 35.4299 9.36981 38.6899 8.43981 42.3799C7.84981 44.5299 8.99981 45.9999 10.5798 46.9999C18.0198 51.9999 26.7298 52.6699 35.2498 53.6799C37.5398 53.9499 36.8998 51.2199 36.9698 49.7599C37.5298 37.9399 39.1698 26.3299 43.0798 15.1199C43.5698 13.7099 44.0798 12.2999 44.5898 10.9299C44.8651 10.3784 45.1898 9.85288 45.5598 9.35987ZM47.1998 62.9999C48.4198 62.8599 50.1998 63.3899 49.9798 61.2599C49.8298 59.5899 48.3198 59.8899 47.2498 60.0099C46.1798 60.1299 44.2498 59.2199 44.2498 61.3799C44.1998 63.3499 45.9998 62.8699 47.1998 62.9999Z" fill="#25326B"></path><path d="M275.11 65.1699C275.11 60.1699 275.19 55.1699 275.11 50.1699C275.06 48.0199 275.77 47.1699 277.96 47.3299C280.15 47.4899 282.29 47.3299 284.45 47.3299C284.95 47.3299 285.8 47.1599 285.9 47.3299C288.82 53.3299 291.32 47.5399 293.9 46.9599C299.66 45.6499 304.97 46.3299 308.97 50.7199C310.86 52.7899 311.49 52.1699 312.97 50.7199C316.33 47.4299 320.29 45.7199 325.13 46.5099C332.65 47.7899 336.38 51.5099 336.76 59.0299C337.12 66.1599 336.76 73.3199 336.93 80.4699C336.93 82.4699 336.23 83.1999 334.34 82.9999H333.84C324.51 83.5199 324.52 83.5199 324.51 74.2999C324.51 70.2999 324.51 66.2999 324.39 62.2999C324.21 58.1599 321.99 55.7399 317.74 55.9799C313.67 56.2099 312.11 58.8499 312.15 62.7299C312.21 68.3799 312.03 74.0399 312.22 79.7299C312.31 82.3099 311.58 83.0499 308.94 83.0899C300.09 83.2199 300.09 83.3399 300.09 74.3599C300.09 70.7099 300.22 67.0399 300.09 63.3599C299.88 58.5499 297.21 55.7099 293.23 55.9599C288.48 56.2599 287.31 59.5099 287.3 63.5499C287.3 68.8699 287.12 74.1999 287.36 79.5499C287.48 82.4399 286.5 83.0899 283.74 83.0999C275.23 83.0999 275.23 83.2399 275.23 74.5399L275.11 65.1699Z" fill="#25326B"></path><path d="M161.36 84.1899C145.47 84.3299 131.83 74.0499 129.16 60.6799C125.9 44.3999 136.89 28.2999 153.24 25.0799C160.51 23.6499 167.41 24.6799 174.24 27.0799C177.62 28.2499 179.43 29.9499 176.88 33.5199C176.399 34.197 176.021 34.9418 175.76 35.7299C174.52 39.6099 172.76 40.2499 168.67 38.4999C160.76 35.0999 150.97 37.7799 146.4 43.5999C141.83 49.4199 141.17 56.4199 144.73 62.5999C146.636 65.8429 149.468 68.4415 152.863 70.0614C156.258 71.6813 160.06 72.2485 163.78 71.6899C165.25 71.4499 166.69 71.0099 168.16 70.7599C170.05 70.4399 172.16 67.7599 173.42 69.2499C175.58 71.7999 176.87 75.1699 178.14 78.3499C178.82 80.0399 176.81 80.4099 175.74 80.9499C171.3 83.2365 166.351 84.3517 161.36 84.1899Z" fill="#25326B"></path><path d="M266.19 65.4698C266.19 70.2898 266.02 75.1198 266.25 79.9298C266.38 82.6598 265.25 83.9298 262.91 83.0398C259.99 81.9198 255.54 86.3198 253.91 80.4198C253.64 79.4198 252.32 80.8398 251.56 81.3198C244.12 86.0698 235.26 85.1098 229.41 78.9198C226.329 75.5231 224.501 71.1753 224.23 66.5973C223.959 62.0194 225.261 57.4864 227.92 53.7498C230.347 50.3366 233.911 47.9 237.972 46.8773C242.033 45.8547 246.326 46.3129 250.08 48.1698C251.65 48.9298 252.78 51.5098 255.08 47.8998C256.14 46.2698 261.65 47.3298 265.08 47.5598C266.55 47.6598 266.08 49.4198 266.08 50.5098C266.21 55.4998 266.19 60.4898 266.19 65.4698ZM246 73.9998C251.15 73.9398 254.46 70.3598 254.32 64.9998C254.19 59.9998 250.69 56.7298 245.64 56.8198C243.362 56.8676 241.196 57.8184 239.619 59.4631C238.042 61.1078 237.182 63.3116 237.23 65.5898C237.278 67.868 238.229 70.034 239.873 71.6112C241.518 73.1883 243.722 74.0476 246 73.9998Z" fill="#25326B"></path><path d="M396 54.0499C405.49 57.7699 408.23 62.2299 407.16 71.0499C406.38 77.5699 400.52 82.4299 391.53 82.8799C381.91 83.3499 372.25 82.9699 362.61 83.0799C360.54 83.0799 360.22 82.2799 360.23 80.4499C360.29 63.5099 360.29 46.5666 360.23 29.6199C360.23 28.1899 360.23 26.9599 362.23 27.0199C372.02 27.3299 381.86 26.2099 391.59 27.6299C397.44 28.4799 402.65 31.2299 403.99 37.4599C405.37 44.2599 403.88 50.4099 396 54.0499ZM380.1 57.0499C375.87 57.0499 372.39 57.1699 368.91 57.0499C366.73 56.9499 366.03 57.6599 366.08 59.8499C366.22 65.1499 366.14 70.4599 366.08 75.7599C366.08 77.3099 365.99 78.8499 368.25 78.7599C376.69 78.5199 385.19 79.5099 393.55 77.7599C395.855 77.3679 397.954 76.1929 399.494 74.4331C401.033 72.6733 401.918 70.4365 402 68.0999C402.17 63.2899 399.3 59.7499 394.15 58.0099C389.25 56.3499 384.25 57.4799 380.07 57.0799L380.1 57.0499ZM378.4 52.4299V52.0199C381.88 52.0199 385.4 52.2699 388.84 51.9599C394.67 51.4499 398.84 47.2999 398.98 42.2499C399.12 37.1999 395.37 33.1499 389.44 32.0199C384.66 31.1099 379.85 31.3899 375.05 31.3699C366.12 31.3699 366.05 31.3699 366.16 40.0699C366.21 43.9999 364.4 49.3299 366.92 51.4799C369.26 53.5299 374.43 52.2799 378.37 52.4599L378.4 52.4299Z" fill="#25326B"></path><path d="M207.21 67C203.88 67 200.54 67.15 197.21 67C193.64 66.81 193.7 68.32 195.05 70.8C197.42 75.19 203.72 76.24 208.55 73.03C210.98 71.42 217.18 72.6 218.89 74.88C219.79 76.1 218.82 76.61 218.28 77.34C213.28 84.08 200.19 86.46 191.9 82.11C187.952 80.088 184.836 76.7484 183.092 72.67C181.347 68.5916 181.085 64.0315 182.35 59.78C185.03 51.05 194.85 45.23 204.35 46.72C214.63 48.33 220.35 54.72 220.35 64.25C220.35 66.44 219.8 67.19 217.59 67.09C214.2 66.91 210.7 67 207.21 67ZM202.31 60.24C203.76 59.33 206.37 61.5 208.11 59.3C208.67 58.61 207.94 57.47 207.23 56.66C206.316 55.5733 205.109 54.7729 203.752 54.3543C202.396 53.9358 200.947 53.9169 199.58 54.3C199.419 54.3382 199.261 54.3918 199.11 54.46C197.11 55.38 194.74 56.55 195.11 58.94C195.49 61.56 198.11 59.74 199.69 60.21C200.558 60.3322 201.437 60.3523 202.31 60.27V60.24Z" fill="#25326B"></path><path d="M479.49 76.9999C473.15 84.1799 465.81 84.3698 458.3 82.7398C455.605 82.1066 453.22 80.5429 451.564 78.324C449.909 76.1052 449.089 73.3735 449.25 70.6099C449.449 67.8454 450.651 65.2491 452.631 63.3097C454.611 61.3702 457.232 60.2215 460 60.0799C465.321 59.6406 470.662 59.4837 476 59.6099C478.68 59.6099 479.39 58.8299 479.31 56.2199C479.12 49.0199 473.74 44.4699 465.81 45.2899C461.996 45.5264 458.307 46.7422 455.1 48.8199C453.68 49.8199 452.93 50.4399 451.75 48.3999C450.7 46.5599 451.12 45.7399 452.68 44.8399C460.76 40.1999 469.19 39.1699 477.78 43.0599C483.55 45.6799 484.73 51.2299 484.91 56.8299C485.16 64.4599 484.96 72.1099 484.99 79.7499C484.99 81.5599 485.45 83.2098 482.44 83.1698C479.43 83.1298 479.67 81.6798 479.81 79.7398C479.759 78.8208 479.652 77.9058 479.49 76.9999ZM470 63.2799C466.726 63.0293 463.433 63.3336 460.26 64.1799C457.42 64.9499 455.26 66.5999 454.88 69.9099C454.5 73.2199 455.45 75.7799 458.2 77.6199C464.2 81.6199 474.83 78.9499 478.25 72.6199C481.32 66.9199 479.32 63.3099 473.12 63.3199L470 63.2799Z" fill="#25326B"></path><path d="M512.83 40.8602C516.812 40.6813 520.784 41.3883 524.46 42.9302C525.99 43.6002 528.26 43.6402 526.99 46.3702C525.99 48.5502 524.81 48.3702 522.74 47.3702C517.83 45.1002 512.63 44.3002 507.28 46.0702C504.21 47.0702 501.99 48.7502 501.85 52.3002C501.69 56.0302 504.25 57.7102 507.15 58.5802C510.93 59.7102 514.9 60.2302 518.76 61.0902C526.49 62.8202 529.46 66.1502 529.14 72.6202C528.86 78.2502 524.32 82.2001 517.25 83.0901C510.7 83.9201 504.3 83.5402 498.33 80.5502C497.09 79.9302 493.96 80.1202 495.74 76.6202C497.36 73.4402 498.74 75.3602 500.33 76.0802C506.2 78.7702 512.19 80.0802 518.59 78.0802C521.75 77.0802 523.9 75.2802 523.94 71.8302C523.98 68.3802 521.51 66.8902 518.67 66.1202C514.54 64.9902 510.31 64.2102 506.15 63.1202C499.08 61.3202 495.8 57.6402 496.15 52.1202C496.5 46.6002 501.29 41.9902 507.83 41.1202C509.49 40.8802 511.17 40.9302 512.83 40.8602Z" fill="#25326B"></path><path d="M562.17 53.0602C562.17 44.4102 562.23 35.7602 562.17 27.1202C562.17 24.7802 562.37 23.4102 565.3 23.4702C568.23 23.5302 567.92 25.2002 567.92 27.0902C567.92 44.7102 567.92 62.3402 567.92 79.9702C567.92 82.1902 567.62 83.1702 565.04 83.1602C562.46 83.1502 562.09 82.2802 562.12 80.0002C562.25 71.0002 562.17 62.0002 562.17 53.0602Z" fill="#25326B"></path><path d="M426 48.3398C427.364 46.1904 429.226 44.4012 431.428 43.1235C433.63 41.8459 436.107 41.1174 438.65 40.9998C440.44 40.8798 441.55 40.9998 441.3 43.2298C441.13 44.6898 441.54 45.8498 439.17 46.1598C429.76 47.4098 426.1 51.6598 425.87 61.2298C425.73 67.3698 425.76 73.5098 425.87 79.6498C425.87 81.9098 425.8 83.2398 422.87 83.2198C420.08 83.2198 420.14 81.8998 420.15 79.8898C420.21 68.1098 420.15 56.3298 420.15 44.5498C420.15 42.8198 419.54 40.9798 422.63 40.9898C425.48 40.9898 425.34 42.4398 425.35 44.3998C425.37 45.5698 424.67 46.9198 426 48.3398Z" fill="#25326B"></path><path d="M545.89 62.16C545.89 68.16 545.77 74.1 545.95 80.06C546.02 82.42 545.46 83.15 542.95 83.16C540.44 83.17 540.09 82.16 540.11 79.94C540.203 68.0133 540.203 56.0833 540.11 44.15C540.11 41.88 540.57 40.99 543.11 40.96C545.8 40.96 545.96 42.18 545.92 44.27C545.82 50.23 545.89 56.2 545.89 62.16Z" fill="#25326B"></path><path d="M547.07 27.6801C546.88 29.8301 545.59 31.2101 542.97 31.1701C540.6 31.1701 539.17 29.8101 539.07 27.5701C538.96 24.9201 540.79 23.6601 543.2 23.7001C545.32 23.7401 547 24.7201 547.07 27.6801Z" fill="#25326B"></path></g><defs><clipPath id="clip0_504_2858"><rect width="567.92" height="114.1" fill="white"></rect></clipPath></defs></svg> 