<?xml version="1.0"?>
<svg xmlns="http://www.w3.org/2000/svg" id="Layer_1" width="115mm" height="42.5mm" viewBox="0 0 326 120.4">
  <defs>
    <style>
      .cls-1 {
        fill: #d15420;
      }

      .cls-2 {
        fill: #f47521;
      }

      .cls-3 {
        fill: #0b2d72;
      }
    </style>
  </defs>
  <title>sulamerica-saude</title>
  <g>
    <path class="cls-1" d="M284.3,62.5c30.1-6.2,68.1,12.2,90.1,5.6,1.4-.4,1.8.3-.3,1.1-7.7,3-20.8,2.4-41.8.3-43.4-4.4-46.7,4.6-69.8,11.3-18.2,5.3-28.7,5.1-28.7,5.1l2.8-1.6C236.7,84.2,264.6,66.6,284.3,62.5Z" transform="translate(-49.6 -57.6)"/>
    <path class="cls-2" d="M51.4,69.3c-2.3.7,13.7,10.6,52.9,4,25.8-4.4,57.9-12.1,80.6,5.4,28.7,22.3,52.8,4.9,52.6,5s-4.6,1.2-27.3-.6c-33.4-2.7-38.5-31.6-72.9-24.2-15.6,3.3-21.5,6.1-32.8,9.3-30.7,8.7-45.3,3.2-52.8,1.1Z" transform="translate(-49.6 -57.6)"/>
  </g>
  <g>
    <path class="cls-3" d="M306.7,140.3h-9.3V109.4a4.2,4.2,0,0,1,4.7-4.5h4.6Z" transform="translate(-49.6 -57.6)"/>
    <path class="cls-3" d="M212.6,140.3h-9V118.4c0-2.1-.5-3.8-1.8-4.7a6.9,6.9,0,0,0-4.2-1.4,6.6,6.6,0,0,0-4.2,1.4,5.8,5.8,0,0,0-1.9,4.7v21.9h-9.1V119.5c0-5.8,1.9-9.8,4.8-12a18.1,18.1,0,0,1,10.1-3.4,18.4,18.4,0,0,1,5.7.8,14.7,14.7,0,0,1,5.4,3.6s2.9-4.3,10.3-4.3a15.5,15.5,0,0,1,9.9,3.4c3,2.3,5.7,6,5.7,12.1v20.7h-4.6a4.9,4.9,0,0,1-3.4-1.2,4.2,4.2,0,0,1-1.2-3.2V118.4a5.6,5.6,0,0,0-2-4.6,7.1,7.1,0,0,0-8.5,0c-1.3.9-1.8,2.6-1.8,4.6v21.9Z" transform="translate(-49.6 -57.6)"/>
    <path class="cls-3" d="M263.4,129.4h6.4a15.1,15.1,0,0,1-5.9,8.6c-2.7,1.9-6.2,2.8-10.5,2.8a15,15,0,0,1-11.6-5.1c-3-3.2-4.4-7.7-4.4-13.3s1.2-9.8,4.1-13a16.2,16.2,0,0,1,12.2-5.4,15.6,15.6,0,0,1,11.9,4.9c3.4,3.7,4.6,7.7,4.7,13.8,0,.4-.1,1.9-.1,2H245.4c.4,5,3.8,8.5,8.7,8.5s5.1-1.4,6.8-2.9A3.2,3.2,0,0,1,263.4,129.4Zm-17.8-10.6h15.9a7.5,7.5,0,0,0-7.7-7.4A8.1,8.1,0,0,0,245.6,118.7Z" transform="translate(-49.6 -57.6)"/>
    <path class="cls-3" d="M273.8,140.2V124.9c0-.4-.3-5.9.8-9.3,3.7-11.5,18.8-10.6,18.7-10.6v9s-10.3-.8-10.3,6.4v19.9Z" transform="translate(-49.6 -57.6)"/>
    <path class="cls-3" d="M49.6,125.7h8.9c.6,2.9,1.3,3.8,2.8,4.9s3.6,1.8,6.9,1.8c6.8-.1,7.6-3.8,7.6-5.2-.1-9.2-25.3-3.3-26-19.5a12.3,12.3,0,0,1,4.5-10.1A17.6,17.6,0,0,1,66,93.4c5.2-.1,9.1,1,12.1,3.1a15.3,15.3,0,0,1,6.3,11H79.3a4.1,4.1,0,0,1-4.1-2.4,5.7,5.7,0,0,0-1.9-2.4,12.4,12.4,0,0,0-7.1-1.8c-7.3,0-8.9,6.8-5.5,8.8,8.1,4.9,23.5,3.2,24.4,16.2.2,2.9-1,14.7-16.7,14.7-5.8,0-9.8-1.4-12.8-3.8A15.3,15.3,0,0,1,49.6,125.7Z" transform="translate(-49.6 -57.6)"/>
    <path class="cls-3" d="M119.1,104.9v19.4c0,9.9-4.2,16.4-15,16.4s-15.3-6.2-15.3-15.8v-20h9.2v20.9c0,5.2,2.8,6.7,5.7,6.7s6.5-1.6,6.5-6.7V109.4a4.5,4.5,0,0,1,1.2-3.2,5,5,0,0,1,3.8-1.3Z" transform="translate(-49.6 -57.6)"/>
    <path class="cls-3" d="M123.4,99.8c0-1.6.5-4.7,4.4-4.7h4.9v45.3h-9.3Z" transform="translate(-49.6 -57.6)"/>
    <path class="cls-3" d="M156,95.1c-2.5,0-4.3.5-5.3,3.2l-15,42.1h9.5l3.3-9.4h17.5l3.3,9.4H179L162.8,95.1Zm-4.6,27.9,5.9-16.7,5.1,14.3.8,2.3Z" transform="translate(-49.6 -57.6)"/>
    <path class="cls-3" d="M375.6,115.4c0-3.1-1.3-6.6-3.9-8.4a18.2,18.2,0,0,0-10.7-3,16,16,0,0,0-10.5,3.4,10.2,10.2,0,0,0-4.1,7h8.8c.2-.9,1.3-3.1,5.7-3.1,2,0,5.7.7,5.7,3.5s-2,2.9-6,3.4l-3.8.6c-3.4.5-5.5,1.2-7.7,2.9a9.2,9.2,0,0,0-3.8,7.6,10.2,10.2,0,0,0,4.2,8.6c2.4,1.7,5.9,3.1,12.9,2.5a13.6,13.6,0,0,0,5.4-1.7,2.7,2.7,0,0,0,2.3,1.5h5.4Zm-16,18.5a7.1,7.1,0,0,1-4.3-1.5,4.2,4.2,0,0,1-1.3-2.9,4.4,4.4,0,0,1,1-3c.9-.9,1.8-1.2,3.4-1.5l3.1-.6c2.7-.5,4.2-.8,5.4-1.8v3.5C366.9,128.6,367.7,133.9,359.6,133.9Z" transform="translate(-49.6 -57.6)"/>
    <path class="cls-3" d="M263.5,95l-6.2,6.2a2.6,2.6,0,0,1-2,.7h-4.2l3.5-5.2a4.7,4.7,0,0,1,1-1.3,2.4,2.4,0,0,1,1.6-.4Z" transform="translate(-49.6 -57.6)"/>
    <path class="cls-3" d="M306.7,101.9h-9.3V99.3a4.1,4.1,0,0,1,1.3-3.1,4.4,4.4,0,0,1,3.2-1.3h4.8Z" transform="translate(-49.6 -57.6)"/>
    <path class="cls-3" d="M337.4,129.3h5.5c-.7,3.5-4.5,11.4-15.9,11.4s-16.6-10.3-16.6-18.2c0-11.8,8.2-18.6,16.8-18.6a14.5,14.5,0,0,1,15.1,10.5h-8.6s-1.2-3.1-6.1-3.1-9.2,1.6-9.2,10.8c0,2.4.8,11,9.1,11a7.7,7.7,0,0,0,5.3-1.6C334.6,130,334.3,129.3,337.4,129.3Z" transform="translate(-49.6 -57.6)"/>
  </g>
  <g>
    <path class="cls-2" d="M298.6,171c0,2,1.4,3.7,4.8,3.7s4.6-1.4,4.6-3.5-2.2-2.8-5.2-3.7-7.4-2.7-7.4-6.8,3-6.6,7.7-6.6,7.8,2.4,7.8,6.7h-3.5c0-2.4-1.9-3.5-4.3-3.5s-4.1,1.2-4.1,3.1,1.5,2.6,5.1,3.6c5.1,1.3,7.5,3.4,7.5,7.2s-2.2,6.9-8.1,6.9-8.5-2.9-8.5-7Z" transform="translate(-49.6 -57.6)"/>
    <path class="cls-2" d="M314.6,162.9a7.5,7.5,0,0,1,5.6-2.2c5.7,0,7.1,3.2,7.1,6.9v10h-2.7v-.9a8.3,8.3,0,0,1-4.3,1.1c-3.3,0-6.3-1.5-6.3-5.7s3.4-5.5,6.7-5.5l3.2.3c0-1.9-.7-3.4-3.8-3.4a6.3,6.3,0,0,0-3.5,1Zm9.1,6.5-2.7-.2c-2.2,0-4,.6-4,3s1.7,3,3.7,3a6.6,6.6,0,0,0,3-.7Z" transform="translate(-49.6 -57.6)"/>
    <path class="cls-2" d="M340.9,177.6v-.9a8.9,8.9,0,0,1-4.4,1.1c-3.2,0-6.3-1.6-6.3-5.8V161h3.5v10.8c0,2.3,1.1,3.3,3.3,3.3a7.9,7.9,0,0,0,3.1-.6V161h3.5v16.6Zm-5.6-19.2,1.9-4h3.3l-2.8,4Z" transform="translate(-49.6 -57.6)"/>
    <path class="cls-2" d="M356.9,177.6v-.9a8.3,8.3,0,0,1-4.3,1.1c-3.2,0-6.4-1.6-6.4-5.8v-5.5c0-4.4,3.1-5.9,6.1-5.9a10.3,10.3,0,0,1,3.9.8v-7.1h3.5v23.2Zm-.8-13.6a9.1,9.1,0,0,0-3.2-.6c-2.1,0-3.2.9-3.2,3.4v5.3c0,1.9,1.2,3,3.3,3a7.4,7.4,0,0,0,3-.6Z" transform="translate(-49.6 -57.6)"/>
    <path class="cls-2" d="M362.4,167.1c0-4,2.5-6.4,6.8-6.4s6.3,2.5,6.3,6.3v3.6h-9.7v1.8c0,2.1,1.4,2.9,3.3,2.9a6.1,6.1,0,0,0,3.7-1.2l2,1.6a7.8,7.8,0,0,1-5.9,2.3c-4.5,0-6.5-2.7-6.5-6Zm9.8-.2c0-2.5-1.4-3.4-3.1-3.4s-3.2.9-3.2,3.5v1.4h6.3Z" transform="translate(-49.6 -57.6)"/>
  </g>
</svg>
